<svg preserveAspectRatio="xMidYMid meet" width="100%" height="100%" overflow="visible" style="display: block;" viewBox="0 0 47.6053 36" fill="none" xmlns="http://www.w3.org/2000/svg">
<g id="Vector">
<path d="M26.1107 30.2429C23.7868 31.7856 20.9983 32.6842 18 32.6842C9.89013 32.6842 3.31579 26.1099 3.31579 18C3.31579 9.89014 9.89013 3.31579 18 3.31579C24.7027 3.31579 30.3566 7.80666 32.1168 13.9436C33.1421 13.571 34.2362 13.3418 35.3748 13.2801C33.3012 5.62838 26.3079 0 18 0C8.05888 0 0 8.05888 0 18C0 27.9411 8.05888 36 18 36C21.7686 36 25.2667 34.8419 28.1578 32.8621C27.3545 32.0964 26.6631 31.2143 26.1107 30.2429Z" fill="var(--fill-0, black)"/>
<path fill-rule="evenodd" clip-rule="evenodd" d="M35.7632 32.6842C40.4721 32.6842 44.2895 28.8668 44.2895 24.1579C44.2895 19.4489 40.4721 15.6316 35.7632 15.6316C31.0542 15.6316 27.2368 19.4489 27.2368 24.1579C27.2368 28.8668 31.0542 32.6842 35.7632 32.6842ZM35.7632 36C42.3034 36 47.6053 30.6981 47.6053 24.1579C47.6053 17.6177 42.3034 12.3158 35.7632 12.3158C29.2229 12.3158 23.9211 17.6177 23.9211 24.1579C23.9211 30.6981 29.2229 36 35.7632 36Z" fill="var(--fill-0, black)"/>
</g>
</svg>
