<svg xmlns="http://www.w3.org/2000/svg" viewBox="0 0 260 260">
  <rect width="260" height="260" fill="#ffffff"/>
  <g transform="translate(0,260) scale(0.1,-0.1)" fill="#000000" stroke="none">
    <path d="M0 1300 l0 -1300 1300 0 1300 0 0 1300 0 1300 -1300 0 -1300 0 0
-1300z m1245 764 c221 -60 408 -210 508 -410 l26 -51 74 -6 c314 -27 544 -311
499 -618 -29 -201 -173 -373 -370 -441 -53 -18 -89 -23 -172 -23 -120 0 -199
22 -290 79 l-53 33 -81 -37 c-128 -60 -192 -74 -341 -74 -146 0 -212 14 -332
69 -217 100 -368 278 -435 512 -32 111 -32 295 0 406 89 310 337 529 657 581
56 9 250 -3 310 -20z"/>
    <path d="M945 1964 c-247 -39 -463 -222 -541 -460 -25 -77 -29 -104 -29 -204
0 -100 4 -127 29 -204 55 -166 172 -306 325 -385 119 -61 178 -75 316 -75 126
0 172 9 268 51 55 25 70 44 46 59 -24 14 -79 155 -91 229 -24 156 26 323 133
439 58 64 148 128 207 147 20 6 41 15 45 19 13 12 -90 156 -155 214 -66 60
-181 125 -268 150 -55 17 -228 29 -285 20z"/>
    <path d="M1703 1465 c-77 -21 -130 -51 -188 -106 -256 -242 -123 -662 231
-722 292 -50 556 235 480 518 -61 231 -298 370 -523 310z"/>
  </g>
</svg>
