<svg preserveAspectRatio="none" width="100%" height="100%" overflow="visible" style="display: block;" viewBox="0 0 18 17.8895" fill="none" xmlns="http://www.w3.org/2000/svg">
<path id="Vector" d="M18 8.99859C17.9997 7.2787 17.5067 5.59491 16.5792 4.14654C15.6517 2.69817 14.3286 1.54589 12.7666 0.826096C11.2046 0.106307 9.46901 -0.150843 7.76539 0.0850892C6.06176 0.321022 4.46141 1.04016 3.15379 2.15736C1.84617 3.27456 0.886045 4.74304 0.387078 6.38896C-0.111889 8.03487 -0.128802 9.78929 0.338341 11.4445C0.805485 13.0998 1.73712 14.5865 3.02296 15.7287C4.3088 16.8709 5.89499 17.6207 7.59375 17.8895V11.6007H5.30887V8.99859H7.59375V7.01521C7.59375 4.75959 8.937 3.51421 10.9935 3.51421C11.9779 3.51421 13.0073 3.68971 13.0073 3.68971V5.90484H11.8732C10.755 5.90484 10.4062 6.59896 10.4062 7.31109V8.99859H12.9026L12.5033 11.6007H10.4062V17.8895C12.5234 17.5545 14.4515 16.475 15.8436 14.8451C17.2357 13.2153 18.0003 11.142 18 8.99859Z" fill="var(--fill-0, black)"/>
</svg>
