<svg preserveAspectRatio="none" width="100%" height="100%" overflow="visible" style="display: block;" viewBox="0 0 18 12.897" fill="none" xmlns="http://www.w3.org/2000/svg">
<path id="Vector" d="M17.6231 1.99575C17.5213 1.61273 17.3206 1.26317 17.0413 0.982032C16.7619 0.700894 16.4136 0.498037 16.0312 0.39375C14.6059 1.67638e-07 9 0 9 0C9 0 3.39412 1.67638e-07 1.96875 0.39375C1.58638 0.498037 1.2381 0.700894 0.958741 0.982032C0.679381 1.26317 0.478736 1.61273 0.376875 1.99575C0 3.42562 0 6.4485 0 6.4485C0 6.4485 0 9.4725 0.376875 10.9013C0.478736 11.2843 0.679381 11.6338 0.958741 11.915C1.2381 12.1961 1.58638 12.399 1.96875 12.5033C3.39412 12.897 9 12.897 9 12.897C9 12.897 14.6059 12.897 16.0312 12.5033C16.4136 12.399 16.7619 12.1961 17.0413 11.915C17.3206 11.6338 17.5213 11.2843 17.6231 10.9013C18 9.4725 18 6.4485 18 6.4485C18 6.4485 18 3.4245 17.6231 1.99575ZM7.2 9.1485V3.7485L12.0004 6.4485L7.2 9.1485Z" fill="var(--fill-0, black)"/>
</svg>
