<svg preserveAspectRatio="none" width="100%" height="100%" overflow="visible" style="display: block;" viewBox="0 0 18 18" fill="none" xmlns="http://www.w3.org/2000/svg">
<path id="Vector" d="M9 1.62C11.403 1.62 11.6876 1.63012 12.6371 1.67287C13.5146 1.71337 13.9916 1.85963 14.3078 1.98338C14.7285 2.1465 15.0277 2.34113 15.3427 2.65613C15.6577 2.97113 15.8524 3.27037 16.0155 3.69112C16.1393 4.00725 16.2855 4.48425 16.326 5.36175C16.3688 6.31125 16.3789 6.59588 16.3789 8.99888C16.3789 11.4019 16.3688 11.6865 16.326 12.636C16.2855 13.5135 16.1393 13.9905 16.0155 14.3066C15.8717 14.6977 15.6418 15.0514 15.3427 15.3416C15.0277 15.6566 14.7285 15.8512 14.3078 16.0144C13.9916 16.1381 13.5146 16.2844 12.6371 16.3249C11.6876 16.3676 11.403 16.3777 9 16.3777C6.597 16.3777 6.31238 16.3676 5.36288 16.3249C4.48538 16.2844 4.00838 16.1381 3.69225 16.0144C3.30117 15.8706 2.94745 15.6406 2.65725 15.3416C2.35824 15.0514 2.12831 14.6977 1.9845 14.3066C1.86075 13.9905 1.7145 13.5135 1.674 12.636C1.63125 11.6876 1.62 11.403 1.62 9C1.62 6.597 1.63012 6.31238 1.67287 5.36288C1.71337 4.48538 1.85963 4.00838 1.98338 3.69225C2.1465 3.2715 2.34113 2.97225 2.65613 2.65725C2.97113 2.34225 3.27037 2.14763 3.69112 1.9845C4.00725 1.86075 4.48425 1.7145 5.36175 1.674C6.31237 1.63125 6.597 1.62 9 1.62ZM9 0C6.55537 0 6.24938 0.01125 5.28975 0.054C4.33125 0.097875 3.67875 0.24975 3.105 0.4725C2.50407 0.697866 1.95991 1.05232 1.51088 1.51088C1.05232 1.95991 0.697866 2.50407 0.4725 3.105C0.24975 3.67875 0.097875 4.33125 0.054 5.28975C0.01125 6.24938 0 6.55537 0 9C0 11.4446 0.01125 11.7506 0.054 12.7103C0.097875 13.6688 0.24975 14.3224 0.4725 14.895C0.703125 15.4867 1.01025 15.9896 1.51088 16.4891C2.01038 16.9897 2.51212 17.2969 3.105 17.5275C3.67875 17.7502 4.33125 17.9021 5.28975 17.946C6.24938 17.9887 6.55537 18 9 18C11.4446 18 11.7506 17.9887 12.7103 17.946C13.6688 17.9021 14.3224 17.7502 14.895 17.5275C15.4959 17.3021 16.0401 16.9477 16.4891 16.4891C16.9897 15.9896 17.2969 15.4879 17.5275 14.895C17.7502 14.3212 17.9021 13.6688 17.946 12.7103C17.9887 11.7506 18 11.4446 18 9C18 6.55537 17.9887 6.24938 17.946 5.28975C17.9021 4.33125 17.7502 3.67762 17.5275 3.105C17.3021 2.50407 16.9477 1.95991 16.4891 1.51088C16.0401 1.05232 15.4959 0.697866 14.895 0.4725C14.3212 0.24975 13.6688 0.097875 12.7103 0.054C11.7506 0.01125 11.4446 0 9 0ZM9 4.3785C7.7743 4.3785 6.59881 4.86541 5.73211 5.73211C4.86541 6.59881 4.3785 7.7743 4.3785 9C4.3785 10.2257 4.86541 11.4012 5.73211 12.2679C6.59881 13.1346 7.7743 13.6215 9 13.6215C10.2257 13.6215 11.4012 13.1346 12.2679 12.2679C13.1346 11.4012 13.6215 10.2257 13.6215 9C13.6215 7.7743 13.1346 6.59881 12.2679 5.73211C11.4012 4.86541 10.2257 4.3785 9 4.3785ZM9 12.0004C8.20425 12.0004 7.44109 11.6843 6.87841 11.1216C6.31574 10.5589 5.99963 9.79575 5.99963 9C5.99963 8.20425 6.31574 7.44109 6.87841 6.87841C7.44109 6.31574 8.20425 5.99963 9 5.99963C9.79575 5.99963 10.5589 6.31574 11.1216 6.87841C11.6843 7.44109 12.0004 8.20425 12.0004 9C12.0004 9.79575 11.6843 10.5589 11.1216 11.1216C10.5589 11.6843 9.79575 12.0004 9 12.0004ZM14.8837 4.18163C14.8837 4.46806 14.77 4.74276 14.5674 4.9453C14.3649 5.14784 14.0902 5.26163 13.8038 5.26163C13.5173 5.26163 13.2426 5.14784 13.0401 4.9453C12.8375 4.74276 12.7238 4.46806 12.7238 4.18163C12.7238 3.89519 12.8375 3.62049 13.0401 3.41795C13.2426 3.21541 13.5173 3.10162 13.8038 3.10162C14.0902 3.10162 14.3649 3.21541 14.5674 3.41795C14.77 3.62049 14.8837 3.89519 14.8837 4.18163Z" fill="var(--fill-0, black)"/>
</svg>
